<?xml version="1.0" standalone="no"?>
<!DOCTYPE svg PUBLIC "-//W3C//DTD SVG 20010904//EN"
 "http://www.w3.org/TR/2001/REC-SVG-20010904/DTD/svg10.dtd">
<svg version="1.0" xmlns="http://www.w3.org/2000/svg"
 width="800.000000pt" height="797.000000pt" viewBox="0 0 800.000000 797.000000"
 preserveAspectRatio="xMidYMid meet">

<g transform="translate(0.000000,797.000000) scale(0.100000,-0.100000)"
fill="#000000" stroke="none">
<path d="M3980 7301 c-8 -5 -34 -12 -57 -16 -23 -3 -47 -13 -54 -21 -6 -8 -17
-14 -23 -14 -6 0 -38 -14 -71 -30 -33 -17 -65 -30 -71 -30 -15 0 -132 -59
-139 -70 -3 -5 -25 -15 -48 -21 -23 -6 -52 -19 -65 -30 -14 -10 -33 -19 -43
-19 -28 0 -49 -11 -49 -25 0 -13 -65 -38 -127 -49 -18 -3 -72 -28 -120 -56
-49 -27 -100 -50 -114 -50 -14 0 -34 -9 -44 -20 -10 -11 -27 -20 -37 -20 -29
0 -78 -29 -78 -45 0 -8 -8 -15 -18 -15 -10 0 -34 -8 -55 -19 -60 -31 -117 -52
-196 -73 -41 -10 -109 -36 -151 -57 -42 -21 -91 -42 -107 -45 -17 -4 -39 -16
-49 -27 -9 -10 -25 -19 -35 -19 -10 0 -21 -4 -24 -10 -3 -5 -15 -10 -26 -10
-11 0 -36 -16 -56 -35 -25 -24 -51 -37 -92 -46 -77 -17 -138 -44 -178 -79 -34
-30 -45 -34 -122 -45 -24 -3 -55 -15 -69 -25 -13 -11 -33 -20 -43 -20 -11 0
-19 -4 -19 -10 0 -5 -10 -10 -22 -10 -13 0 -32 -7 -42 -15 -11 -8 -26 -15 -34
-15 -20 0 -122 -52 -122 -62 0 -4 -12 -8 -26 -8 -23 0 -90 -32 -104 -50 -3 -4
-13 -9 -23 -13 -9 -4 -22 -19 -28 -34 -12 -33 -58 -83 -75 -83 -7 0 -16 -17
-19 -37 -3 -21 -12 -49 -20 -63 -11 -21 -14 -325 -17 -1720 l-3 -1695 21 -40
c28 -51 105 -116 172 -145 28 -12 57 -28 63 -36 6 -8 19 -14 29 -14 9 0 38
-11 64 -24 27 -13 60 -27 75 -31 14 -4 33 -12 41 -20 8 -7 33 -18 55 -25 22
-6 60 -21 85 -32 110 -50 173 -80 280 -132 63 -31 123 -56 132 -56 10 0 61
-23 114 -50 53 -28 103 -50 111 -50 9 0 30 -9 47 -19 17 -11 83 -40 146 -66
63 -25 122 -52 131 -61 9 -8 49 -24 89 -35 40 -11 84 -28 97 -39 13 -10 41
-24 61 -31 20 -7 53 -22 73 -35 20 -12 52 -27 72 -32 20 -6 50 -20 66 -31 16
-12 47 -28 68 -35 21 -8 52 -21 68 -30 17 -9 37 -16 45 -16 8 0 33 -10 55 -21
51 -28 142 -59 170 -59 13 0 25 -7 28 -15 7 -17 354 -185 382 -185 5 0 33 -12
62 -26 30 -14 73 -26 96 -27 l42 -2 5 1005 5 1005 32 55 c55 96 127 152 248
194 67 24 131 57 180 93 12 9 86 45 185 91 36 16 86 32 112 36 27 3 100 31
170 64 68 33 134 63 148 67 14 4 36 16 49 26 13 11 34 19 47 19 13 0 43 11 68
25 58 32 72 31 105 -4 16 -17 39 -33 52 -36 24 -6 24 -7 24 -143 0 -75 3 -515
6 -977 l5 -840 50 3 c78 5 149 29 185 64 34 33 41 36 161 82 37 14 100 41 140
60 40 18 90 39 110 46 21 6 40 16 43 21 4 5 15 9 26 9 10 0 19 4 19 8 0 4 26
16 58 27 31 11 59 22 62 26 9 12 82 39 107 39 27 0 58 14 86 40 10 10 43 21
75 25 33 4 72 16 92 30 19 12 51 26 71 29 21 4 42 13 49 21 7 8 29 19 49 25
47 13 55 19 72 55 8 17 25 32 39 35 16 4 26 14 28 28 2 13 10 22 22 22 11 0
20 10 25 27 4 16 7 596 6 1291 -1 923 2 1262 10 1262 8 0 10 125 7 458 -4 438
-5 459 -25 501 -19 40 -66 91 -84 91 -4 0 -10 9 -14 19 -6 21 -146 93 -204
106 -18 4 -35 13 -38 20 -2 8 -21 19 -41 26 -21 7 -46 18 -57 25 -27 18 -143
47 -155 39 -5 -3 -7 0 -4 9 7 18 -81 66 -121 66 -14 0 -25 5 -25 10 0 6 -7 10
-15 10 -20 0 -119 49 -123 61 -2 5 -12 9 -21 9 -10 0 -26 8 -35 19 -12 14 -30
18 -66 17 -39 -1 -50 3 -54 17 -2 9 -21 24 -43 33 -21 9 -49 24 -63 34 -14 9
-41 20 -61 24 -19 3 -80 29 -135 56 -54 27 -113 52 -131 56 -17 3 -39 15 -49
25 -9 10 -22 19 -28 19 -6 0 -33 11 -61 24 -72 34 -117 46 -143 40 -17 -5 -21
-3 -16 9 6 17 -45 47 -83 47 -12 0 -32 9 -43 20 -11 11 -23 20 -26 20 -3 0
-54 24 -114 54 -59 30 -126 57 -149 61 -22 4 -58 19 -79 35 -22 16 -60 35 -86
44 -83 28 -170 67 -208 93 -20 14 -56 29 -80 34 -24 5 -70 23 -103 38 -104 50
-151 61 -259 61 -56 0 -108 -4 -116 -9z m1430 -2071 c0 -5 8 -10 18 -10 9 -1
35 -16 56 -35 39 -34 39 -36 48 -132 13 -150 13 -676 -1 -681 -6 -2 -11 -15
-11 -29 0 -14 -10 -42 -22 -62 -81 -135 -95 -151 -178 -186 -25 -11 -57 -32
-73 -47 -15 -15 -35 -28 -45 -28 -9 0 -35 -11 -57 -25 -23 -14 -56 -25 -77
-25 -37 0 -108 -27 -108 -40 0 -4 -21 -10 -46 -14 -25 -3 -57 -15 -71 -26 -14
-11 -33 -20 -42 -20 -20 -1 -45 -20 -53 -41 -4 -9 -23 -19 -45 -23 -61 -11
-73 -16 -73 -32 0 -10 -12 -14 -37 -14 -20 0 -56 -9 -80 -20 -24 -11 -62 -29
-86 -40 -24 -11 -47 -20 -52 -20 -5 0 -39 -14 -76 -31 -78 -36 -96 -34 -153
14 l-38 33 1 402 c1 375 2 406 21 459 11 32 20 65 20 75 0 10 11 23 24 28 13
5 36 24 51 44 20 26 36 36 68 41 23 4 60 17 82 30 22 12 51 26 65 30 14 4 35
16 48 26 12 9 40 20 61 24 22 4 47 15 57 26 11 12 30 19 54 19 24 0 43 7 55
20 18 20 97 60 118 60 17 0 117 50 117 59 0 4 19 13 43 20 44 14 113 40 185
72 23 10 42 25 42 34 0 8 12 18 28 21 15 4 47 17 72 30 46 25 90 31 90 14z"/>
</g>
</svg>
